HIERARCHY
ROOT hip
{
  OFFSET 0 0 0
  CHANNELS 6 Xposition Yposition Zposition Zrotation Yrotation Xrotation
  JOINT abdomen
  {
    OFFSET 0 20.6881 -0.73152
    CHANNELS 3 Zrotation Xrotation Yrotation
    JOINT chest
    {
      OFFSET 0 11.7043 -0.48768
      CHANNELS 3 Zrotation Xrotation Yrotation
      JOINT neck
      {
        OFFSET 0 22.1894 -2.19456
        CHANNELS 3 Zrotation Xrotation Yrotation
        JOINT head
        {
          OFFSET -0.24384 7.07133 1.2192
          CHANNELS 3 Zrotation Xrotation Yrotation
          JOINT leftEye
          {
            OFFSET 4.14528 8.04674 8.04672
            CHANNELS 3 Zrotation Xrotation Yrotation
            End Site
            {
              OFFSET 1 0 0
            }
          }
          JOINT rightEye
          {
            OFFSET -3.6576 8.04674 8.04672
            CHANNELS 3 Zrotation Xrotation Yrotation
            End Site
            {
              OFFSET 1 0 0
            }
          }
        }
      }
      JOINT rCollar
      {
        OFFSET -2.68224 19.2634 -4.8768
        CHANNELS 3 Zrotation Xrotation Yrotation
        JOINT rShldr
        {
          OFFSET -8.77824 -1.95073 1.46304
          CHANNELS 3 Zrotation Xrotation Yrotation
          JOINT rForeArm
          {
            OFFSET -28.1742 -1.7115 0.48768
            CHANNELS 3 Zrotation Xrotation Yrotation
            JOINT rHand
            {
              OFFSET -22.5879 0.773209 7.07136
              CHANNELS 3 Zrotation Xrotation Yrotation
              JOINT rThumb1
              {
                OFFSET -1.2192 -0.487915 3.41376
                CHANNELS 3 Zrotation Xrotation Yrotation
                JOINT rThumb2
                {
                  OFFSET -3.37035 -0.52449 3.41376
                  CHANNELS 3 Zrotation Xrotation Yrotation
                  End Site
                  {
                    OFFSET -1.78271 -1.18214 1.43049
                  }
                }
              }
              JOINT rIndex1
              {
                OFFSET -7.75947 0.938293 5.60832
                CHANNELS 3 Zrotation Xrotation Yrotation
                JOINT rIndex2
                {
                  OFFSET -2.54057 -0.884171 1.56538
                  CHANNELS 3 Zrotation Xrotation Yrotation
                  End Site
                  {
                    OFFSET -1.62519 -0.234802 1.16502
                  }
                }
              }
              JOINT rMid1
              {
                OFFSET -8.24714 1.18213 3.41376
                CHANNELS 3 Zrotation Xrotation Yrotation
                JOINT rMid2
                {
                  OFFSET -3.10165 -0.590103 1.0647
                  CHANNELS 3 Zrotation Xrotation Yrotation
                  End Site
                  {
                    OFFSET -2.48547 -0.328903 0.83742
                  }
                }
              }
              JOINT rRing1
              {
                OFFSET -8.82822 0.546677 1.51678
                CHANNELS 3 Zrotation Xrotation Yrotation
                JOINT rRing2
                {
                  OFFSET -2.60934 -0.819778 -0.0198488
                  CHANNELS 3 Zrotation Xrotation Yrotation
                  End Site
                  {
                    OFFSET -2.33842 -0.294052 0.168128
                  }
                }
              }
              JOINT rPinky1
              {
                OFFSET -8.27202 -0.0477905 -0.4584
                CHANNELS 3 Zrotation Xrotation Yrotation
                JOINT rPinky2
                {
                  OFFSET -1.82734 -0.647385 -0.700984
                  CHANNELS 3 Zrotation Xrotation Yrotation
                  End Site
                  {
                    OFFSET -1.69225 -0.51767 -0.607171
                  }
                }
              }
            }
          }
        }
      }
      JOINT lCollar
      {
        OFFSET 2.68224 19.2634 -4.8768
        CHANNELS 3 Zrotation Xrotation Yrotation
        JOINT lShldr
        {
          OFFSET 8.77824 -1.95073 1.46304
          CHANNELS 3 Zrotation Xrotation Yrotation
          JOINT lForeArm
          {
            OFFSET 28.1742 -1.7115 0.48768
            CHANNELS 3 Zrotation Xrotation Yrotation
            JOINT lHand
            {
              OFFSET 22.5879 0.773209 7.07136
              CHANNELS 3 Zrotation Xrotation Yrotation
              JOINT lThumb1
              {
                OFFSET 1.2192 -0.487915 3.41376
                CHANNELS 3 Zrotation Xrotation Yrotation
                JOINT lThumb2
                {
                  OFFSET 3.37035 -0.52449 3.41376
                  CHANNELS 3 Zrotation Xrotation Yrotation
                  End Site
                  {
                    OFFSET 1.78271 -1.18214 1.43049
                  }
                }
              }
              JOINT lIndex1
              {
                OFFSET 7.75947 0.938293 5.60832
                CHANNELS 3 Zrotation Xrotation Yrotation
                JOINT lIndex2
                {
                  OFFSET 2.54057 -0.884171 1.56538
                  CHANNELS 3 Zrotation Xrotation Yrotation
                  End Site
                  {
                    OFFSET 1.62519 -0.234802 1.16502
                  }
                }
              }
              JOINT lMid1
              {
                OFFSET 8.24714 1.18213 3.41376
                CHANNELS 3 Zrotation Xrotation Yrotation
                JOINT lMid2
                {
                  OFFSET 3.10165 -0.590103 1.0647
                  CHANNELS 3 Zrotation Xrotation Yrotation
                  End Site
                  {
                    OFFSET 2.48547 -0.328903 0.83742
                  }
                }
              }
              JOINT lRing1
              {
                OFFSET 8.82822 0.546677 1.51678
                CHANNELS 3 Zrotation Xrotation Yrotation
                JOINT lRing2
                {
                  OFFSET 2.60934 -0.819778 -0.0198488
                  CHANNELS 3 Zrotation Xrotation Yrotation
                  End Site
                  {
                    OFFSET 2.33842 -0.294052 0.168128
                  }
                }
              }
              JOINT lPinky1
              {
                OFFSET 8.27202 -0.0477905 -0.4584
                CHANNELS 3 Zrotation Xrotation Yrotation
                JOINT lPinky2
                {
                  OFFSET 1.82734 -0.647385 -0.700984
                  CHANNELS 3 Zrotation Xrotation Yrotation
                  End Site
                  {
                    OFFSET 1.69225 -0.51767 -0.607171
                  }
                }
              }
            }
          }
        }
      }
    }
  }
  JOINT rButtock
  {
    OFFSET -8.77824 4.35084 1.2192
    CHANNELS 3 Zrotation Xrotation Yrotation
    JOINT rThigh
    {
      OFFSET 0 -1.70687 -2.19456
      CHANNELS 3 Zrotation Xrotation Yrotation
      JOINT rShin
      {
        OFFSET 0 -36.8199 0.73152
        CHANNELS 3 Zrotation Xrotation Yrotation
        JOINT rFoot
        {
          OFFSET 0.73152 -45.1104 -5.12064
          CHANNELS 3 Zrotation Xrotation Yrotation
          End Site
          {
            OFFSET -1.1221 -3.69964 12.103
          }
        }
      }
    }
  }
  JOINT lButtock
  {
    OFFSET 8.77824 4.35084 1.2192
    CHANNELS 3 Zrotation Xrotation Yrotation
    JOINT lThigh
    {
      OFFSET 0 -1.70687 -2.19456
      CHANNELS 3 Zrotation Xrotation Yrotation
      JOINT lShin
      {
        OFFSET 0 -36.8199 0.73152
        CHANNELS 3 Zrotation Xrotation Yrotation
        JOINT lFoot
        {
          OFFSET -0.73152 -45.1104 -5.12064
          CHANNELS 3 Zrotation Xrotation Yrotation
          End Site
          {
            OFFSET 1.1221 -3.69964 12.103
          }
        }
      }
    }
  }
}
MOTION
Frames:	6
Frame Time:	0.00833333
15.2814 83.5072 -11.7576 -4.456 2.6348 3.2679 -4.12137 15.8074 -0.685835 2.95305 -4.23558 -0.270171 6.81081 -4.54144 0.404129 -6.59879 -11.1893 -2.28328 -0.0 0.0 0.0 -0.0 0.0 0.0 2.66003e-14 -1.6652e-13 -9.30596e-14 13.6625 -31.1198 -13.8389 -14.213 -7.1275 25.9836 -0.00907456 -2.71754 -0.382214 7.97354e-10 -1.02449e-09 -1.65256e-10 1.38093e-09 -1.77458e-09 -2.87613e-10 7.97361e-10 -1.02449e-09 -1.65265e-10 7.73091 5.47488 0.417314 7.97354e-10 -1.02449e-09 -1.65255e-10 2.90554 0.965183 0.102902 7.97366e-10 -1.02449e-09 -1.65254e-10 10.2786 0.731801 0.0259123 7.97356e-10 -1.02449e-09 -1.65244e-10 2.22167 -0.733487 -0.20892 2.65678e-14 -1.66518e-13 -9.32595e-14 -32.1327 -30.6328 0.644644 14.6705 -7.50832 -26.9131 0.111775 -9.49177 1.34644 -1.31147e-09 -4.3996e-10 -6.71832e-10 -2.26226e-09 -7.57946e-10 -1.16794e-09 -1.31148e-09 -4.39957e-10 -6.71828e-10 -7.73091 5.47488 -0.417314 -1.31147e-09 -4.39954e-10 -6.71837e-10 -2.90554 0.965183 -0.102902 -1.31148e-09 -4.39953e-10 -6.71833e-10 -10.2786 0.731801 -0.0259123 -1.31147e-09 -4.39951e-10 -6.71842e-10 -2.22167 -0.733487 0.20892 -2.03217e-16 0.0 -3.88251e-19 -10.16 -28.4167 -9.35839 -0.466586 45.6446 0.882457 -3.52972 -4.81516 -15.7163 2.03217e-16 0.0 3.88251e-19 3.09343 -16.8159 3.88908 0.160526 32.7481 -0.654262 3.1899 -10.3882 11.4878
15.4252 83.4987 -11.4115 -4.3238 2.3919 3.2227 -3.70172 15.804 -0.472259 3.04463 -4.24684 -0.186325 6.76798 -4.5539 0.390232 -7.07462 -11.2286 -2.34547 -0.0 0.0 0.0 -0.0 0.0 0.0 9.54871e-14 -1.52667e-13 -8.23962e-14 14.3218 -31.1828 -13.431 -14.1709 -7.09308 25.8984 -0.00802281 -2.55656 -0.359542 1.35172e-09 -1.04041e-09 -2.88963e-10 2.33876e-09 -1.80256e-09 -5.01459e-10 1.35173e-09 -1.04041e-09 -2.88969e-10 7.73091 5.47488 0.417314 1.35172e-09 -1.04041e-09 -2.88963e-10 2.90554 0.965183 0.102902 1.35173e-09 -1.04041e-09 -2.88962e-10 10.2786 0.731801 0.0259123 1.35172e-09 -1.04042e-09 -2.88953e-10 2.22167 -0.733487 -0.20892 9.54518e-14 -1.52667e-13 -8.25453e-14 -31.9129 -30.5436 0.660042 14.7355 -7.56344 -27.0458 0.113705 -9.57183 1.35802 -7.39636e-10 -2.02964e-10 -8.28341e-10 -1.27274e-09 -3.48204e-10 -1.43591e-09 -7.39644e-10 -2.02962e-10 -8.28337e-10 -7.73091 5.47488 -0.417314 -7.39637e-10 -2.02959e-10 -8.28347e-10 -2.90554 0.965183 -0.102902 -7.39641e-10 -2.02958e-10 -8.28343e-10 -10.2786 0.731801 -0.0259123 -7.39635e-10 -2.02955e-10 -8.28353e-10 -2.22167 -0.733487 0.20892 -2.03217e-16 0.0 -3.88251e-19 -10.3366 -28.8375 -9.37521 -0.441809 44.7117 0.854041 -3.49697 -4.79673 -15.6521 2.03217e-16 0.0 3.88251e-19 2.8473 -16.4191 3.86379 0.159184 32.6249 -0.661531 3.28123 -10.3772 11.8383
15.5679 83.4931 -11.0695 -4.1686 2.1489 3.1798 -3.32319 15.8123 -0.270251 3.12814 -4.25294 -0.108006 6.74262 -4.6267 0.388759 -7.55299 -11.1794 -2.3907 -0.0 0.0 0.0 -0.0 0.0 0.0 1.47619e-13 -7.72521e-14 -6.46613e-14 15.0036 -31.2747 -12.9889 -14.1225 -7.0537 25.8006 -0.00698926 -2.38824 -0.335841 1.44511e-09 -7.67412e-10 -4.83609e-10 2.49943e-09 -1.33028e-09 -8.37676e-10 1.44512e-09 -7.67411e-10 -4.83616e-10 7.73091 5.47488 0.417314 1.44511e-09 -7.67414e-10 -4.8361e-10 2.90554 0.965183 0.102902 1.44513e-09 -7.67415e-10 -4.8361e-10 10.2786 0.731801 0.0259123 1.44511e-09 -7.67416e-10 -4.83603e-10 2.22167 -0.733487 -0.20892 1.47594e-13 -7.72535e-14 -6.47638e-14 -31.7121 -30.4501 0.693599 14.8073 -7.62475 -27.1926 0.115183 -9.63298 1.36686 1.29203e-10 1.88915e-10 -8.93662e-10 2.29619e-10 3.28933e-10 -1.54495e-09 1.29194e-10 1.88917e-10 -8.93657e-10 -7.73091 5.47488 -0.417314 1.29201e-10 1.88919e-10 -8.93665e-10 -2.90554 0.965183 -0.102902 1.29197e-10 1.8892e-10 -8.93662e-10 -10.2786 0.731801 -0.0259123 1.29204e-10 1.88922e-10 -8.93671e-10 -2.22167 -0.733487 0.20892 -2.03217e-16 0.0 -3.88251e-19 -10.543 -29.2467 -9.38656 -0.418557 43.7824 0.824371 -3.42201 -4.66885 -15.5265 2.03217e-16 0.0 3.88251e-19 2.58029 -16.0129 3.85279 0.157682 32.4704 -0.666596 3.35948 -10.348 12.1537
15.7079 83.4909 -10.7321 -3.9916 1.9078 3.1396 -2.97729 15.83 -0.0718087 3.20286 -4.25527 -0.0326093 6.7288 -4.73536 0.395738 -8.02769 -11.0724 -2.42327 -0.0 0.0 0.0 -0.0 0.0 0.0 1.92651e-13 4.2541e-14 -3.95675e-14 15.7012 -31.3844 -12.5206 -14.0685 -7.00991 25.6919 -0.00600565 -2.21578 -0.311564 1.26813e-09 -2.86592e-10 -7.21459e-10 2.19244e-09 -4.98165e-10 -1.24835e-09 1.26814e-09 -2.86596e-10 -7.21468e-10 7.73091 5.47488 0.417314 1.26813e-09 -2.86598e-10 -7.21461e-10 2.90554 0.965183 0.102902 1.26814e-09 -2.86599e-10 -7.21462e-10 10.2786 0.731801 0.0259123 1.26812e-09 -2.86598e-10 -7.21456e-10 2.22167 -0.733487 -0.20892 1.92644e-13 4.25386e-14 -3.96234e-14 -31.5339 -30.3462 0.740349 14.886 -7.69219 -27.3538 0.116529 -9.6885 1.37489 1.27148e-09 7.10691e-10 -8.98816e-10 2.20429e-09 1.23035e-09 -1.54873e-09 1.27147e-09 7.10693e-10 -8.98808e-10 -7.73091 5.47488 -0.417314 1.27148e-09 7.10693e-10 -8.98815e-10 -2.90554 0.965183 -0.102902 1.27148e-09 7.10694e-10 -8.98812e-10 -10.2786 0.731801 -0.0259123 1.27148e-09 7.10696e-10 -8.98819e-10 -2.22167 -0.733487 0.20892 -2.03217e-16 0.0 -3.88251e-19 -10.769 -29.6448 -9.38852 -0.396979 42.8527 0.793659 -3.30962 -4.43856 -15.3493 2.03217e-16 0.0 3.88251e-19 2.2992 -15.5949 3.85432 0.156008 32.2862 -0.66958 3.42699 -10.3042 12.4417
15.842 83.4916 -10.3943 -3.7992 1.677 3.0953 -2.66202 15.8514 0.121759 3.28326 -4.25429 0.0401272 6.71254 -4.8473 0.402378 -8.49586 -10.9584 -2.45503 -0.0 0.0 0.0 -0.0 0.0 0.0 2.19668e-13 1.56172e-13 -1.51399e-14 16.3919 -31.4886 -12.0571 -14.0116 -6.96383 25.5774 -0.00511807 -2.0454 -0.287584 1.00795e-09 1.76089e-10 -9.04297e-10 1.74178e-09 3.02669e-10 -1.56392e-09 1.00796e-09 1.7608e-10 -9.04309e-10 7.73091 5.47488 0.417314 1.00795e-09 1.76079e-10 -9.043e-10 2.90554 0.965183 0.102902 1.00796e-09 1.76077e-10 -9.04301e-10 10.2786 0.731801 0.0259123 1.00794e-09 1.76081e-10 -9.04297e-10 2.22167 -0.733487 -0.20892 2.19684e-13 1.56169e-13 -1.51585e-14 -31.3837 -30.2301 0.780784 14.9642 -7.75941 -27.5146 0.117714 -9.73718 1.38193 2.23686e-09 1.14367e-09 -8.43313e-10 3.87267e-09 1.97817e-09 -1.44843e-09 2.23685e-09 1.14367e-09 -8.43302e-10 -7.73091 5.47488 -0.417314 2.23686e-09 1.14367e-09 -8.43306e-10 -2.90554 0.965183 -0.102902 2.23685e-09 1.14367e-09 -8.43304e-10 -10.2786 0.731801 -0.0259123 2.23686e-09 1.14367e-09 -8.4331e-10 -2.22167 -0.733487 0.20892 -2.03217e-16 0.0 -3.88251e-19 -11.0076 -30.0255 -9.39103 -0.376894 41.9314 0.763092 -3.1874 -4.16686 -15.1708 2.03217e-16 0.0 3.88251e-19 2.01525 -15.1694 3.87015 0.154197 32.0775 -0.670701 3.48086 -10.2538 12.6852
15.9687 83.4988 -10.058 -3.5949 1.459 3.0538 -2.37533 15.8708 0.309122 3.38378 -4.25049 0.110464 6.67977 -4.92998 0.399879 -8.95468 -10.8883 -2.49782 -0.0 0.0 0.0 -0.0 0.0 0.0 2.17754e-13 2.13099e-13 5.96354e-16 17.0519 -31.5642 -11.6301 -13.9542 -6.91761 25.462 -0.00435193 -1.88329 -0.264775 8.51748e-10 3.94672e-10 -9.3391e-10 1.47146e-09 6.81087e-10 -1.61482e-09 8.51754e-10 3.94661e-10 -9.33922e-10 7.73091 5.47488 0.417314 8.5175e-10 3.9466e-10 -9.33913e-10 2.90554 0.965183 0.102902 8.51757e-10 3.94659e-10 -9.33914e-10 10.2786 0.731801 0.0259123 8.51735e-10 3.94664e-10 -9.3391e-10 2.22167 -0.733487 -0.20892 2.17797e-13 2.13096e-13 5.96354e-16 -31.2664 -30.0998 0.795488 15.0346 -7.8202 -27.6597 0.118714 -9.77785 1.38782 2.575e-09 1.26916e-09 -7.26661e-10 4.45616e-09 2.1945e-09 -1.24522e-09 2.57499e-09 1.26916e-09 -7.26649e-10 -7.73091 5.47488 -0.417314 2.575e-09 1.26916e-09 -7.26652e-10 -2.90554 0.965183 -0.102902 2.57499e-09 1.26916e-09 -7.2665e-10 -10.2786 0.731801 -0.0259123 2.575e-09 1.26916e-09 -7.26655e-10 -2.22167 -0.733487 0.20892 -2.03217e-16 0.0 -3.88251e-19 -11.2524 -30.3826 -9.40413 -0.357993 41.0268 0.733766 -3.0814 -3.91517 -15.0413 2.03217e-16 0.0 3.88251e-19 1.73956 -14.7406 3.90201 0.152289 31.8496 -0.670177 3.51843 -10.2046 12.8676
